<?xml version="1.0" encoding="utf-8"?>
<!-- Generator: Adobe Illustrator 16.0.0, SVG Export Plug-In . SVG Version: 6.00 Build 0)  -->
<svg version="1.2" baseProfile="tiny" xmlns="http://www.w3.org/2000/svg" xmlns:xlink="http://www.w3.org/1999/xlink" x="0px"
	 y="0px" width="39.69px" height="73.7px" viewBox="0 0 39.69 73.7" xml:space="preserve">
<g id="breadboard">
	<path display="" fill="#175C7A" stroke="#000000" stroke-miterlimit="10" d="M38.888,61.302
		c0,6.492-5.175,11.756-11.557,11.756H12.22c-6.382,0-11.556-5.264-11.556-11.756V12.613c0-6.493,5.174-11.756,11.556-11.756h15.111
		c6.382,0,11.557,5.263,11.557,11.756V61.302z"/>
	<circle display="inline" fill="#FFFFFF" stroke="#EBC96C" stroke-miterlimit="10" cx="9.272" cy="9.458" r="4.826"/>
	<circle display="inline" fill="#FFFFFF" stroke="#EBC96C" stroke-miterlimit="10" cx="30.525" cy="9.458" r="4.826"/>
	<circle display="inline" fill="#58595B" stroke="#A7A9AC" stroke-miterlimit="10" cx="19.845" cy="28.502" r="13.9"/>
	<circle display="inline" fill="#FFFFFF" stroke="#EBC96C" stroke-miterlimit="10" cx="8.49" cy="65.723" r="1.699"/>
	<circle display="inline" fill="#FFFFFF" stroke="#EBC96C" stroke-miterlimit="10" cx="31.2" cy="65.724" r="1.698"/>
	<circle display="inline" fill="#FFFFFF" stroke="#EBC96C" stroke-miterlimit="10" cx="25.699" cy="65.724" r="1.699"/>
	<circle display="inline" fill="#FFFFFF" stroke="#EBC96C" stroke-miterlimit="10" cx="20.035" cy="65.724" r="1.699"/>
	<circle display="inline" fill="#FFFFFF" stroke="#EBC96C" stroke-miterlimit="10" cx="14.357" cy="65.723" r="1.699"/>

		<text transform="matrix(-4.371139e-08 1 -1 -4.371139e-08 28.501 52.4492)" display="inline" fill="#FFFFFF" font-family="'OCRAStd'" font-size="4.4119">GND</text>

		<text transform="matrix(-4.371139e-08 1 -1 -4.371139e-08 23.207 52.4492)" display="inline" fill="#FFFFFF" font-family="'OCRAStd'" font-size="4.4119">VDD</text>

		<text transform="matrix(-4.371139e-08 1 -1 -4.371139e-08 17.9121 49.2725)" display="inline" fill="#FFFFFF" font-family="'OCRAStd'" font-size="4.4119">Gain</text>

		<text transform="matrix(-4.371139e-08 1 -1 -4.371139e-08 12.6172 52.4492)" display="inline" fill="#FFFFFF" font-family="'OCRAStd'" font-size="4.4119">Out</text>

		<text transform="matrix(-4.371139e-08 1 -1 -4.371139e-08 7.3232 55.626)" display="inline" fill="#FFFFFF" font-family="'OCRAStd'" font-size="4.4119">AR</text>
</g>
</svg>
