<?xml version="1.0" encoding="utf-8"?>
<!-- Generator: Adobe Illustrator 16.0.0, SVG Export Plug-In . SVG Version: 6.00 Build 0)  -->
<svg version="1.2" baseProfile="tiny" xmlns="http://www.w3.org/2000/svg" xmlns:xlink="http://www.w3.org/1999/xlink" x="0px"
	 y="0px" width="39.69px" height="73.7px" viewBox="0 0 39.69 73.7" xml:space="preserve">
<g id="schematic">

		<rect x="6.638" y="6.25" fill="#FFFFFF" stroke="#000000" stroke-width="0.7087" stroke-miterlimit="10" width="26.416" height="52.834"/>
	<line fill="none" stroke="#000000" stroke-width="0.7087" stroke-miterlimit="10" x1="9" y1="59.084" x2="9" y2="69.666"/>

		<line fill="none" stroke="#000000" stroke-width="0.7087" stroke-miterlimit="10" x1="14.479" y1="59.084" x2="14.479" y2="69.666"/>

		<line fill="none" stroke="#000000" stroke-width="0.7087" stroke-miterlimit="10" x1="19.958" y1="59.084" x2="19.958" y2="69.666"/>

		<line fill="none" stroke="#000000" stroke-width="0.7087" stroke-miterlimit="10" x1="25.438" y1="59.084" x2="25.438" y2="69.666"/>

		<line fill="none" stroke="#000000" stroke-width="0.7087" stroke-miterlimit="10" x1="30.916" y1="59.084" x2="30.916" y2="69.666"/>
	<text transform="matrix(-4.371139e-08 1 -1 -4.371139e-08 28.7041 48.7871)" font-family="'OCRAStd'" font-size="4.3146">gnd</text>
	<text transform="matrix(-4.371139e-08 1 -1 -4.371139e-08 23.5264 48.7871)" font-family="'OCRAStd'" font-size="4.3146">vdd</text>
	<text transform="matrix(-4.371139e-08 1 -1 -4.371139e-08 18.3486 45.6807)" font-family="'OCRAStd'" font-size="4.3146">gain</text>
	<text transform="matrix(-4.371139e-08 1 -1 -4.371139e-08 13.1709 48.7871)" font-family="'OCRAStd'" font-size="4.3146">out</text>
	<text transform="matrix(-4.371139e-08 1 -1 -4.371139e-08 7.9937 51.8936)" font-family="'OCRAStd'" font-size="4.3146">ar</text>
</g>
</svg>
